HIERARCHY
ROOT Hips
{
	OFFSET -0.001795 -0.223333 0.028219
	CHANNELS 6 Xposition Yposition Zposition Zrotation Yrotation Xrotation 
	JOINT LeftUpLeg
	{
		OFFSET 0.069520 -0.091406 -0.006815
		CHANNELS 3 Zrotation Yrotation Xrotation
		JOINT LeftLeg
		{
			OFFSET 0.034277 -0.375199 -0.004496
			CHANNELS 3 Zrotation Yrotation Xrotation
			JOINT LeftFoot
			{
				OFFSET -0.013596 -0.397961 -0.043693
				CHANNELS 3 Zrotation Yrotation Xrotation
				JOINT LeftToe
				{
					OFFSET 0.026358 -0.055791 0.119288
					CHANNELS 3 Zrotation Yrotation Xrotation
					End Site
					{
						OFFSET 0.000000 0.000000 0.000000
					}
				}
			}
		}
	}
	JOINT RightUpLeg
	{
		OFFSET -0.067670 -0.090522 -0.004320
		CHANNELS 3 Zrotation Yrotation Xrotation
		JOINT RightLeg
		{
			OFFSET -0.038290 -0.382569 -0.008850
			CHANNELS 3 Zrotation Yrotation Xrotation
			JOINT RightFoot
			{
				OFFSET 0.015774 -0.398415 -0.042312
				CHANNELS 3 Zrotation Yrotation Xrotation
				JOINT RightToe
				{
					OFFSET -0.025372 -0.048144 0.123348
					CHANNELS 3 Zrotation Yrotation Xrotation
					End Site
					{
						OFFSET 0.000000 0.000000 0.000000
					}
				}
			}
		}
	}
	JOINT Spine
	{
		OFFSET -0.002533 0.108963 -0.026696
		CHANNELS 3 Zrotation Yrotation Xrotation
		JOINT Spine1
		{
			OFFSET 0.005487 0.135180 0.001092
			CHANNELS 3 Zrotation Yrotation Xrotation
			JOINT Spine2
			{
				OFFSET 0.001457 0.052922 0.025425
				CHANNELS 3 Zrotation Yrotation Xrotation
				JOINT Neck
				{
					OFFSET -0.002778 0.213870 -0.042857
					CHANNELS 3 Zrotation Yrotation Xrotation
					JOINT Head
					{
						OFFSET 0.005152 0.064970 0.051349
						CHANNELS 3 Zrotation Yrotation Xrotation
						End Site
						{
							OFFSET 0.000000 0.000000 0.000000
						}
					}
				}
				JOINT LeftShoulder
				{
					OFFSET 0.078845 0.121749 -0.034090
					CHANNELS 3 Zrotation Yrotation Xrotation
					JOINT LeftArm
					{
						OFFSET 0.090977 0.030469 -0.008868
						CHANNELS 3 Zrotation Yrotation Xrotation
						JOINT LeftForeArm
						{
							OFFSET 0.259612 -0.012772 -0.027456
							CHANNELS 3 Zrotation Yrotation Xrotation
							JOINT LeftHand
							{
								OFFSET 0.249234 0.008986 -0.001171
								CHANNELS 3 Zrotation Yrotation Xrotation
								End Site
								{
									OFFSET 0.000000 0.000000 0.000000
								}
							}
						}
					}
				}
				JOINT RightShoulder
				{
					OFFSET -0.081759 0.118833 -0.038615
					CHANNELS 3 Zrotation Yrotation Xrotation
					JOINT RightArm
					{
						OFFSET -0.096012 0.032551 -0.009143
						CHANNELS 3 Zrotation Yrotation Xrotation
						JOINT RightForeArm
						{
							OFFSET -0.253742 -0.013329 -0.021401
							CHANNELS 3 Zrotation Yrotation Xrotation
							JOINT RightHand
							{
								OFFSET -0.255298 0.007772 -0.005559
								CHANNELS 3 Zrotation Yrotation Xrotation
								End Site
								{
									OFFSET 0.000000 0.000000 0.000000
								}
							}
						}
					}
				}
			}
		}
	}
}
MOTION
Frames: 9
Frame Time: 0.050000
0.000000 0.945245 0.000000 -0.627953 -3.682315 9.919055 5.451058 -0.451108 -6.911149 1.227007 0.083705 -4.895593 7.917712 17.518287 30.124668 0.000000 0.000000 0.000000 -2.828657 0.679574 -6.978739 -2.262061 -0.220313 -7.562240 2.053808 -2.557733 14.389748 0.000000 0.000000 0.000000 4.756961 0.405902 -6.902441 -2.580610 1.147789 -6.024637 -2.297841 4.960793 3.107542 6.649189 -3.422329 -10.332842 0.000000 0.000000 0.000000 -15.320481 4.650332 -4.385456 -55.958364 -4.830765 -4.220799 -5.430220 -13.981452 1.093435 0.000000 0.000000 0.000000 14.222066 -9.676330 -5.546942 62.878474 2.265483 -4.459382 4.503344 17.331764 1.259341 0.000000 0.000000 0.000000 
0.000120 0.944462 0.000238 -0.758374 -4.554437 10.803202 5.786826 -0.436060 -6.793986 0.746105 0.185120 -6.443498 8.402879 17.930820 30.535982 0.000000 0.000000 0.000000 -2.850882 0.801840 -8.399240 -2.161591 -0.192809 -6.970248 2.350115 -2.040610 14.118125 0.000000 0.000000 0.000000 5.611882 0.434747 -7.083309 -3.161068 1.358936 -6.546983 -2.673162 5.935142 2.214171 7.560854 -3.980897 -10.290082 0.000000 0.000000 0.000000 -16.468924 5.278686 -5.042713 -54.774771 -4.384705 -4.203569 -5.153250 -14.079626 1.048991 0.000000 0.000000 0.000000 14.139202 -11.153608 -6.203709 63.573702 1.108813 -4.962172 4.878705 18.200399 1.395989 0.000000 0.000000 0.000000 
0.000162 0.944229 0.000276 -0.381213 -4.275240 10.360529 5.401865 -0.445225 -6.742374 0.724515 0.159619 -5.846017 8.241309 17.792745 30.276237 0.000000 0.000000 0.000000 -2.916800 0.775472 -8.141795 -2.742007 -0.145269 -6.508577 2.116451 -2.247771 13.683668 0.000000 0.000000 0.000000 5.494869 0.369267 -6.389283 -2.987713 1.282427 -7.427751 -3.158806 5.418512 2.387101 7.736126 -4.363951 -9.001859 0.000000 0.000000 0.000000 -15.988601 4.494123 -4.507299 -54.680050 -3.657736 -4.555841 -4.818965 -13.508017 0.976495 0.000000 0.000000 0.000000 14.971804 -10.049577 -5.825690 62.640731 1.219415 -4.922084 4.978339 17.864836 1.372417 0.000000 0.000000 0.000000 
0.000179 0.944308 0.000318 -0.372408 -4.279835 10.786277 6.037367 -0.437154 -6.945669 -0.400432 0.245672 -6.312332 8.213870 17.761880 30.434793 0.000000 0.000000 0.000000 -3.029284 0.819607 -8.679087 -2.589682 -0.144237 -6.379078 2.096352 -2.303011 13.737737 0.000000 0.000000 0.000000 5.357358 0.352308 -6.320790 -3.073299 1.323607 -6.799220 -2.902213 4.937084 0.683112 7.708569 -4.502441 -8.015274 0.000000 0.000000 0.000000 -16.347818 5.363756 -4.953015 -55.059947 -3.834916 -4.337203 -3.556698 -12.766157 0.785165 0.000000 0.000000 0.000000 13.910067 -10.312787 -5.876709 62.958904 0.780425 -4.989890 5.743527 18.406499 1.496597 0.000000 0.000000 0.000000 
0.000161 0.944637 0.000338 -0.222655 -4.114144 10.591547 5.725820 -0.446821 -6.904400 -0.119522 0.220919 -6.093954 8.082854 17.646089 30.441249 0.000000 0.000000 0.000000 -3.038232 0.807668 -8.559367 -2.835104 -0.121498 -6.171053 2.004317 -2.426662 13.686494 0.000000 0.000000 0.000000 5.108275 0.323422 -6.039344 -2.726581 1.191593 -6.570523 -2.975732 4.671644 0.580634 7.352802 -4.148612 -8.623429 0.000000 0.000000 0.000000 -16.368418 5.035965 -4.774853 -55.080763 -3.913981 -4.292598 -3.637080 -12.421896 0.775390 0.000000 0.000000 0.000000 13.685223 -9.957435 -5.685071 62.968015 1.274361 -4.723830 5.694750 18.236602 1.467662 0.000000 0.000000 0.000000 
0.000097 0.945021 0.000479 -0.124455 -4.231200 10.751099 5.771323 -0.448458 -6.965262 -0.402180 0.243908 -6.261146 8.086894 17.639126 30.670377 0.000000 0.000000 0.000000 -3.203920 0.802635 -8.501469 -2.744463 -0.152440 -6.622776 2.109215 -2.359894 13.956187 0.000000 0.000000 0.000000 4.910673 0.314589 -5.988644 -2.621947 1.146251 -6.775998 -2.979417 4.626247 0.500365 7.264897 -4.092192 -8.616647 0.000000 0.000000 0.000000 -16.923924 5.318749 -5.008393 -54.692802 -3.823617 -4.278000 -3.383823 -12.587393 0.760344 0.000000 0.000000 0.000000 13.676432 -9.739460 -5.594640 63.058918 1.347154 -4.685719 5.738232 18.694623 1.511422 0.000000 0.000000 0.000000 
0.000039 0.945290 0.000663 -0.032955 -4.198315 10.688975 5.543455 -0.460304 -7.060080 -0.170447 0.219992 -5.981084 8.049778 17.606583 30.706009 0.000000 0.000000 0.000000 -3.115066 0.794677 -8.390986 -3.067910 -0.143487 -6.675138 2.107103 -2.381625 14.006840 0.000000 0.000000 0.000000 4.841603 0.303999 -5.880450 -2.663479 1.164990 -6.609787 -2.962239 4.338195 0.426476 7.161562 -3.908730 -9.323123 0.000000 0.000000 0.000000 -17.083276 5.072017 -4.868451 -54.599406 -3.740517 -4.295477 -3.664278 -12.751359 0.805833 0.000000 0.000000 0.000000 13.544072 -9.303836 -5.399810 63.222805 1.515280 -4.618939 5.900293 19.351994 1.586272 0.000000 0.000000 0.000000 
0.000068 0.945569 0.000841 0.040381 -3.881338 10.758733 5.471308 -0.479238 -7.355351 -0.129613 0.206750 -5.697210 7.868463 17.452695 30.659031 0.000000 0.000000 0.000000 -3.089977 0.796678 -8.432540 -3.222988 -0.133718 -6.620828 1.959252 -2.627636 14.064223 0.000000 0.000000 0.000000 4.866869 0.302422 -5.901451 -2.659489 1.169869 -6.388750 -3.228374 4.208132 0.140782 7.251967 -3.990289 -9.117164 0.000000 0.000000 0.000000 -17.286143 4.595410 -4.700710 -54.325299 -3.563527 -4.313979 -3.647574 -13.294896 0.834333 0.000000 0.000000 0.000000 13.616769 -9.182166 -5.340975 63.399697 1.615360 -4.538981 5.911919 19.934216 1.644610 0.000000 0.000000 0.000000 
0.000137 0.946091 0.000896 0.179232 -3.742123 10.624546 5.279428 -0.491149 -7.466327 -0.051703 0.187535 -5.310850 7.749737 17.347072 30.709889 0.000000 0.000000 0.000000 -3.147423 0.787589 -8.349969 -3.375646 -0.117301 -6.466921 1.897313 -2.738570 14.112108 0.000000 0.000000 0.000000 4.851033 0.281395 -5.665560 -2.595582 1.146575 -6.444411 -3.374980 4.044451 0.076777 7.170008 -3.906868 -9.283622 0.000000 0.000000 0.000000 -17.413225 4.262017 -4.548977 -54.273593 -3.629904 -4.271437 -3.715451 -13.511201 0.857312 0.000000 0.000000 0.000000 13.720274 -8.845990 -5.203832 63.255564 1.879668 -4.389913 6.064886 20.496710 1.719449 0.000000 0.000000 0.000000 
